<?xml version="1.0" standalone="no"?>
<!DOCTYPE svg PUBLIC "-//W3C//DTD SVG 20010904//EN"
 "http://www.w3.org/TR/2001/REC-SVG-20010904/DTD/svg10.dtd">
<svg width="700" height="700" viewBox="0 0 700 700" fill="none" xmlns="http://www.w3.org/2000/svg">
<path fill-rule="evenodd" clip-rule="evenodd" d="M516.023 529.548C515.578 529.834 515.047 530 514.465 530H513.969H506.237H220.297C127.897 530 60.688 429.325 60.688 366.678C60.688 301.371 119.612 203.356 203.876 203.356H512.647C512.922 203.278 513.213 203.241 513.515 203.249C596.354 205.594 662.703 302.284 662.703 366.678C662.703 386.099 656.164 429.001 630.226 463.163C603.341 498.572 557.703 525.759 516.023 529.548Z" fill="#88AD9C"/>
<g opacity="0.519787">
<mask id="path-2-inside-1" fill="white">
<path fill-rule="evenodd" clip-rule="evenodd" d="M485.66 170.204C442.698 171.138 251.939 175.277 176.599 176.717C92.5462 178.323 37.6641 275.546 37.6641 340.852C37.6641 403.5 104.873 504.175 197.273 504.175H483.213H490.909H491.441C491.981 504.175 492.478 504.032 492.902 503.782C535.238 500.423 585.206 475.796 612.127 440.338C638.065 406.176 651.399 358.673 651.399 317.742C651.399 255.046 573.77 176.387 492.869 170.466C492.427 170.209 491.908 170.068 491.349 170.08C490.247 170.104 488.853 170.134 487.186 170.17C486.895 170.162 486.603 170.154 486.311 170.147C486.088 170.141 485.87 170.161 485.66 170.204Z"/>
</mask>
<path d="M485.66 170.204L485.791 176.202L486.326 176.191L486.851 176.084L485.66 170.204ZM176.599 176.717L176.714 182.715L176.599 176.717ZM492.902 503.782L492.427 497.801L491.048 497.91L489.855 498.613L492.902 503.782ZM612.127 440.338L607.348 436.71L607.348 436.71L612.127 440.338ZM492.869 170.466L489.865 175.659L491.057 176.349L492.431 176.449L492.869 170.466ZM491.349 170.08L491.48 176.078L491.48 176.078L491.349 170.08ZM487.186 170.17L487.003 176.168L487.16 176.172L487.317 176.169L487.186 170.17ZM486.311 170.147L486.168 176.145L486.168 176.145L486.311 170.147ZM485.53 164.205C442.563 165.14 251.814 169.278 176.484 170.718L176.714 182.715C252.064 181.275 442.832 177.137 485.791 176.202L485.53 164.205ZM176.484 170.718C132.002 171.568 95.7151 197.715 70.7923 231.323C45.901 264.888 31.6641 306.75 31.6641 340.852H43.6641C43.6641 309.648 56.8682 270.245 80.4312 238.471C103.963 206.739 137.143 183.472 176.714 182.715L176.484 170.718ZM31.6641 340.852C31.6641 373.982 49.2548 416.148 78.2675 449.916C107.363 483.782 148.796 510.175 197.273 510.175V498.175C153.35 498.175 114.978 474.23 87.3694 442.096C59.6777 409.865 43.6641 370.37 43.6641 340.852H31.6641ZM197.273 510.175H483.213V498.175H197.273V510.175ZM483.213 510.175H490.909V498.175H483.213V510.175ZM490.909 510.175H491.441V498.175H490.909V510.175ZM491.441 510.175C493.059 510.175 494.607 509.742 495.949 508.951L489.855 498.613C490.349 498.322 490.904 498.175 491.441 498.175V510.175ZM607.348 436.71C581.566 470.667 533.241 494.563 492.427 497.801L493.376 509.763C537.236 506.284 588.845 480.925 616.906 443.966L607.348 436.71ZM645.399 317.742C645.399 357.579 632.372 403.752 607.348 436.71L616.906 443.966C643.757 408.601 657.399 359.766 657.399 317.742H645.399ZM492.431 176.449C531.175 179.285 569.556 199.626 598.324 227.149C627.206 254.78 645.399 288.657 645.399 317.742H657.399C657.399 284.131 636.778 247.331 606.62 218.478C576.348 189.516 535.464 167.567 493.307 164.482L492.431 176.449ZM495.874 165.272C494.492 164.472 492.891 164.045 491.218 164.081L491.48 176.078C490.926 176.09 490.361 175.946 489.865 175.659L495.874 165.272ZM491.218 164.081C490.116 164.105 488.722 164.136 487.056 164.172L487.317 176.169C488.983 176.133 490.378 176.102 491.48 176.078L491.218 164.081ZM486.168 176.145C486.447 176.152 486.725 176.159 487.003 176.168L487.369 164.173C487.064 164.164 486.759 164.156 486.454 164.148L486.168 176.145ZM486.851 176.084C486.624 176.13 486.394 176.15 486.168 176.145L486.454 164.148C485.781 164.132 485.116 164.192 484.47 164.323L486.851 176.084Z" fill="black" mask="url(#path-2-inside-1)"/>
</g>
<ellipse cx="178.683" cy="365.089" rx="40.2909" ry="17.987" fill="#A9B7B1"/>
<ellipse cx="439.135" cy="366.528" rx="40.2909" ry="17.987" fill="#A5BAB1"/>
<path fill-rule="evenodd" clip-rule="evenodd" d="M240.357 354.624C256.184 347.202 364.659 354.68 374.418 357.009C384.177 359.339 396.969 376.011 396.969 394.371C396.969 412.73 374.418 430.583 363.318 430.583C352.218 430.583 260.122 426.445 249.463 424.622C238.804 422.799 218.974 403.144 218.974 391.318C218.974 379.491 224.529 362.047 240.357 354.624Z" fill="#D4D4D4"/>
<path d="M152.781 290.983C152.781 290.983 175.467 308.704 189.935 314.69C204.403 320.677 238.369 326.199 238.369 326.199" stroke="#0B0A0A" stroke-width="6" stroke-linecap="round"/>
<path d="M386.613 390.99H238.96" stroke="black" stroke-width="6" stroke-linecap="round"/>
<path d="M460.841 290.983C460.841 290.983 437.97 307.397 423.502 313.384C409.034 319.37 375.82 329.274 375.82 329.274" stroke="#0B0A0A" stroke-width="6" stroke-linecap="round"/>
</svg>

